<?xml version="1.0" standalone="no"?>
<!DOCTYPE svg PUBLIC "-//W3C//DTD SVG 20010904//EN"
 "http://www.w3.org/TR/2001/REC-SVG-20010904/DTD/svg10.dtd">
<svg version="1.0" xmlns="http://www.w3.org/2000/svg"
 width="74.000000pt" height="74.000000pt" viewBox="0 0 74.000000 74.000000"
 preserveAspectRatio="xMidYMid meet">
<metadata>
Created by potrace 1.14, written by Peter Selinger 2001-2017
</metadata>
<g transform="translate(0.000000,74.000000) scale(0.100000,-0.100000)"
fill="#000000" stroke="none">
<path d="M274 701 c-56 -14 -119 -50 -162 -92 -49 -49 -55 -70 -12 -39 52 37
193 98 258 111 34 7 62 16 62 19 0 8 -111 9 -146 1z"/>
<path d="M411 648 c-25 -4 -67 -15 -95 -24 -56 -18 -206 -92 -207 -103 -6 -50
-30 -75 -66 -68 -17 3 -22 -2 -27 -26 -10 -48 -7 -97 5 -97 7 0 38 26 70 58
32 33 81 74 108 93 28 19 51 40 51 47 0 25 40 53 68 49 16 -3 66 8 112 24 47
16 96 29 109 29 19 0 21 3 11 14 -12 16 -59 17 -139 4z"/>
<path d="M560 569 c-70 -8 -172 -44 -185 -65 -26 -42 -34 -47 -65 -46 -53 1
-204 -115 -216 -166 -4 -15 -16 -37 -27 -49 -18 -20 -19 -26 -8 -47 16 -29 59
-76 70 -76 4 0 13 11 19 25 7 14 31 51 54 82 24 31 48 70 53 87 7 21 20 34 40
41 28 9 86 48 129 87 11 10 64 40 118 67 107 54 113 72 18 60z"/>
<path d="M585 456 c-72 -38 -204 -132 -206 -147 -1 -5 -2 -13 -3 -19 -2 -18
-36 -50 -53 -50 -33 0 -146 -151 -127 -170 14 -13 110 -39 121 -32 5 4 24 33
42 65 46 82 138 195 205 252 30 27 53 52 51 56 -7 11 45 50 57 43 6 -4 8 2 6
11 -5 29 -21 28 -93 -9z"/>
<path d="M586 278 c-62 -62 -144 -166 -172 -220 l-14 -26 38 10 c125 34 230
144 249 261 5 33 3 37 -16 37 -13 0 -47 -25 -85 -62z"/>
</g>
</svg>
