<svg width="24" height="24" viewBox="0 0 24 24" fill="none" xmlns="http://www.w3.org/2000/svg">
<g id="Check">
<rect width="24" height="24" rx="12" fill="#002768"/>
<path id="Vector" d="M18.8782 8.56513L10.1466 17.1748C10.0693 17.2517 9.964 17.2949 9.85418 17.2949C9.74436 17.2949 9.63908 17.2517 9.56175 17.1748L5.12183 12.7968C5.04386 12.7207 5 12.6169 5 12.5085C5 12.4002 5.04386 12.2964 5.12183 12.2202L5.69844 11.6516C5.77578 11.5748 5.88105 11.5315 5.99087 11.5315C6.10069 11.5315 6.20596 11.5748 6.28329 11.6516L9.85006 15.1686L17.7167 7.41176C17.8796 7.25598 18.1386 7.25598 18.3016 7.41176L18.8782 7.98844C18.9562 8.0647 19 8.1685 19 8.27679C19 8.38507 18.9562 8.48887 18.8782 8.56513Z" fill="white"/>
</g>
</svg>
