<svg width="20" height="21" viewBox="0 0 20 21" fill="none" xmlns="http://www.w3.org/2000/svg">
<g id="Social icon" clip-path="url(#clip0_4590_1121)">
<path id="Vector" d="M20 10.8887C20 5.36582 15.5229 0.888672 10 0.888672C4.47715 0.888672 0 5.36582 0 10.8887C0 15.8799 3.65684 20.017 8.4375 20.7672V13.7793H5.89844V10.8887H8.4375V8.68555C8.4375 6.1793 9.93047 4.79492 12.2146 4.79492C13.3084 4.79492 14.4531 4.99023 14.4531 4.99023V7.45117H13.1922C11.95 7.45117 11.5625 8.22207 11.5625 9.01367V10.8887H14.3359L13.8926 13.7793H11.5625V20.7672C16.3432 20.017 20 15.8799 20 10.8887Z" fill="white"/>
</g>
<defs>
<clipPath id="clip0_4590_1121">
<rect width="20" height="20" fill="white" transform="translate(0 0.888672)"/>
</clipPath>
</defs>
</svg>
