<svg width="20" height="21" viewBox="0 0 20 21" fill="none" xmlns="http://www.w3.org/2000/svg">
<g id="Instagram">
<path id="Icon" d="M14.5834 6.30469H14.5917M5.83341 2.55469H14.1667C16.4679 2.55469 18.3334 4.42017 18.3334 6.72135V15.0547C18.3334 17.3559 16.4679 19.2214 14.1667 19.2214H5.83341C3.53223 19.2214 1.66675 17.3559 1.66675 15.0547V6.72135C1.66675 4.42017 3.53223 2.55469 5.83341 2.55469ZM13.3334 10.363C13.4363 11.0566 13.3178 11.7649 12.9949 12.3872C12.672 13.0095 12.161 13.5142 11.5348 13.8294C10.9085 14.1446 10.1988 14.2544 9.50657 14.143C8.81435 14.0316 8.17488 13.7048 7.67911 13.209C7.18335 12.7132 6.85653 12.0738 6.74514 11.3815C6.63375 10.6893 6.74347 9.9796 7.05869 9.35333C7.3739 8.72707 7.87857 8.21614 8.5009 7.89322C9.12323 7.57031 9.83154 7.45184 10.5251 7.55469C11.2325 7.65959 11.8875 7.98924 12.3932 8.49494C12.8989 9.00065 13.2285 9.65559 13.3334 10.363Z" stroke="white" stroke-width="1.5" stroke-linecap="round" stroke-linejoin="round"/>
</g>
</svg>
