<svg width="20" height="21" viewBox="0 0 20 21" fill="none" xmlns="http://www.w3.org/2000/svg">
<g id="Group">
<path id="Vector" d="M18.5195 0.888672H1.47656C0.660156 0.888672 0 1.5332 0 2.33008V19.4434C0 20.2402 0.660156 20.8887 1.47656 20.8887H18.5195C19.3359 20.8887 20 20.2402 20 19.4473V2.33008C20 1.5332 19.3359 0.888672 18.5195 0.888672ZM5.93359 17.9316H2.96484V8.38476H5.93359V17.9316ZM4.44922 7.08398C3.49609 7.08398 2.72656 6.31445 2.72656 5.36523C2.72656 4.41602 3.49609 3.64648 4.44922 3.64648C5.39844 3.64648 6.16797 4.41602 6.16797 5.36523C6.16797 6.31055 5.39844 7.08398 4.44922 7.08398ZM17.043 17.9316H14.0781V13.291C14.0781 12.1855 14.0586 10.7598 12.5352 10.7598C10.9922 10.7598 10.7578 11.9668 10.7578 13.2129V17.9316H7.79688V8.38476H10.6406V9.68945H10.6797C11.0742 8.93945 12.043 8.14648 13.4844 8.14648C16.4883 8.14648 17.043 10.123 17.043 12.6934V17.9316Z" fill="white"/>
</g>
</svg>
