<svg width="16" height="17" viewBox="0 0 16 17" fill="none" xmlns="http://www.w3.org/2000/svg">
<g id="Frame" clip-path="url(#clip0_4610_2959)">
<path id="Vector" d="M3.33333 3.55566H6L7.33333 6.889L5.66667 7.889C6.38064 9.33668 7.55231 10.5084 9 11.2223L10 9.55566L13.3333 10.889V13.5557C13.3333 13.9093 13.1929 14.2484 12.9428 14.4985C12.6928 14.7485 12.3536 14.889 12 14.889C9.39951 14.731 6.94677 13.6267 5.10455 11.7844C3.26234 9.94223 2.15803 7.48949 2 4.889C2 4.53538 2.14048 4.19624 2.39052 3.94619C2.64057 3.69614 2.97971 3.55566 3.33333 3.55566Z" stroke="white" stroke-linecap="round" stroke-linejoin="round"/>
</g>
<defs>
<clipPath id="clip0_4610_2959">
<rect width="16" height="16" fill="white" transform="translate(0 0.888672)"/>
</clipPath>
</defs>
</svg>
