<svg width="20" height="21" viewBox="0 0 20 21" fill="none" xmlns="http://www.w3.org/2000/svg">
<g id="Social icon">
<path id="Vector" d="M6.2918 19.0143C13.8371 19.0143 17.9652 12.7615 17.9652 7.34083C17.9652 7.16505 17.9613 6.98536 17.9535 6.80958C18.7566 6.22883 19.4496 5.50949 20 4.68536C19.2521 5.01812 18.458 5.23543 17.6449 5.3299C18.5011 4.81671 19.1421 4.01051 19.4492 3.06075C18.6438 3.53808 17.763 3.87479 16.8445 4.05646C16.2257 3.39892 15.4075 2.96355 14.5164 2.81766C13.6253 2.67177 12.711 2.82349 11.9148 3.24936C11.1186 3.67523 10.4848 4.35154 10.1115 5.17371C9.73825 5.99588 9.64619 6.91813 9.84961 7.79786C8.21874 7.71602 6.62328 7.29237 5.16665 6.55436C3.71002 5.81636 2.42474 4.78048 1.39414 3.51388C0.870333 4.41699 0.710047 5.48565 0.945859 6.50269C1.18167 7.51973 1.79589 8.40882 2.66367 8.98927C2.01219 8.96859 1.37498 8.79318 0.804688 8.47755V8.52833C0.804104 9.47607 1.13175 10.3948 1.73192 11.1283C2.3321 11.8617 3.16777 12.3647 4.09687 12.5518C3.49338 12.7169 2.85999 12.7409 2.2457 12.6221C2.50788 13.4371 3.01798 14.15 3.70481 14.6612C4.39164 15.1724 5.22093 15.4564 6.07695 15.4736C4.62369 16.6152 2.82848 17.2344 0.980469 17.2315C0.652739 17.231 0.325333 17.2109 0 17.1713C1.87738 18.3757 4.06128 19.0154 6.2918 19.0143Z" fill="white"/>
</g>
</svg>
